<svg id="レイヤー_1" data-name="レイヤー 1" xmlns="http://www.w3.org/2000/svg" viewBox="0 0 218.23 28.9"><title>header_logo_01</title><path d="M24.57,12.65a4.26,4.26,0,0,1,.85,0c.25,0,.32-.14.24-.31a.66.66,0,0,0-.6-.45.91.91,0,0,0-.66.45C24.28,12.51,24.34,12.67,24.57,12.65Z" transform="translate(-0.77 -2.6)" style="fill:#b50029"/><path d="M23.7,14c-.09,0-.12.12,0,.19a.74.74,0,0,0,.48.11,6.25,6.25,0,0,1,.94-.1,9.21,9.21,0,0,1,1,.12.57.57,0,0,0,.39-.11c.08-.08,0-.18-.07-.16a.41.41,0,0,1-.3-.1,4.87,4.87,0,0,1-.6-.49.27.27,0,0,0-.36,0,.14.14,0,0,1-.18,0,.27.27,0,0,0-.36,0l-.58.44A.5.5,0,0,1,23.7,14Z" transform="translate(-0.77 -2.6)" style="fill:#b50029"/><path d="M22.93,10.42a1.71,1.71,0,0,0-1.43,1c-.11.23.09.53.39.29A1.53,1.53,0,0,1,23,11.45l.53.06c.14,0,.26-.06.26-.28A.87.87,0,0,0,22.93,10.42Z" transform="translate(-0.77 -2.6)" style="fill:#b50029"/><path d="M39.41,8a23.73,23.73,0,0,0-.8-2.27,4.56,4.56,0,0,0-4.79-3.12c-1.13.08-3.14.42-5.71,3.21-2-1.48-3.05-.82-3.59-.41C24,5,22.94,4.37,20.94,5.83,18.83,3.57,17,2.68,15,2.61a4.49,4.49,0,0,0-4.36,2.58,14.29,14.29,0,0,0-.91,2.39A168.13,168.13,0,0,1,.77,31h2a2.3,2.3,0,0,0,2.55-1.6,171.21,171.21,0,0,0,7.83-21.3,3.71,3.71,0,0,1,.71-1.39,1.93,1.93,0,0,1,1.44-.6,2.08,2.08,0,0,1,1.1.33,10.19,10.19,0,0,1,2,1.81,1.58,1.58,0,0,0-.16.68,4,4,0,0,0,.22,1.18,4.4,4.4,0,0,1,.22,1.26,2,2,0,0,1-1.52,2,.81.81,0,0,1-.94-1c.06-.59.37-.73.59-.73s.61.28.38.83a1.15,1.15,0,0,0,1-1.32A1.16,1.16,0,0,0,17,10.07c-1.1,0-2,.79-2,2.43a4.75,4.75,0,0,0,2.93,4.17,4.51,4.51,0,0,0,3.19,2.74c.41.1.55,0,.45-.43a20.44,20.44,0,0,0-1-3,.38.38,0,0,0-.32-.27,5.1,5.1,0,0,1-.56.08,1.47,1.47,0,0,1-1.4-1.32.77.77,0,0,1,.77-.78,1.25,1.25,0,0,1,1,.66c.14.22.32.09.28-.1a6.29,6.29,0,0,1-.11-1.36,3.59,3.59,0,0,1,.41-1.58,1,1,0,0,0-.15-1.11,2.17,2.17,0,0,1-.65-1.58c0-.78.43-1.56,1.17-1.58a.72.72,0,0,1,.78.78c0,.4-.22.64-.49.64s-.41-.18-.44-.49c0-.14-.13-.12-.2,0a1.86,1.86,0,0,0-.2.91c0,.62.33,1.16,1,1.16s1.06-.57,1.07-1.34a1.27,1.27,0,0,0,1.85.8,1.71,1.71,0,0,1-1-1.49,1,1,0,0,1,1.08-1.13,1,1,0,0,1,.91.46c.09.13,0,.27-.1.22a1,1,0,0,0-.44,0,.77.77,0,0,0-.61.71,1.06,1.06,0,0,0,.43.9,1.44,1.44,0,0,0,.9.36.71.71,0,0,0,.72-.4,1.25,1.25,0,0,1,.91-.72c.3,0,.48.14.47.38s-.22.47-.67.57-.32.37.09.37c1,0,1.79.19,2.06,1.32.17.69-.24.59-.52.3a1.92,1.92,0,0,0-1.35-.75.89.89,0,0,0-1,.74c-.05.31.14.41.3.34a1.77,1.77,0,0,1,1-.06,3,3,0,0,1,1.43.69,2.6,2.6,0,0,1,.63,2c0,2.71-1.58,4-3.83,4.44-1.11.22-.55,1.55.48,1.46.54,0,1.11-.1,1.71-.1,1.1,0,1.8.62,1.12,2.64a25.61,25.61,0,0,1-2.9,5.3,2,2,0,0,1-1.62,1,1.94,1.94,0,0,1-1.61-1,32.89,32.89,0,0,1-2.78-5,3.54,3.54,0,0,0-1.29-1.6A2.77,2.77,0,0,0,14.62,23c-.89,2.48-2,5.22-3.26,8h1.3a2.42,2.42,0,0,0,2.72-1.64c.69-1.55,1.33-3.16,2-4.89a22.61,22.61,0,0,0,2.51,4.64,5.27,5.27,0,0,0,4.56,2.12A5.26,5.26,0,0,0,29,29.15a26.42,26.42,0,0,0,2.62-4.74c.7,1.77,1.41,3.5,2,4.87A2.42,2.42,0,0,0,36.44,31h1.42c-1.66-3.47-3-7-4.27-10.4a.72.72,0,1,1,1.32-.58c1.21,3.14,2.5,6.5,3.84,9.32A2.44,2.44,0,0,0,41.38,31h1.41a140.79,140.79,0,0,1-6.63-16.82.68.68,0,1,1,1.27-.52c1.65,4.77,4,10.63,6.21,15.63A2.37,2.37,0,0,0,46.36,31h1.85A182.1,182.1,0,0,1,39.41,8Z" transform="translate(-0.77 -2.6)" style="fill:#b50029"/><path d="M14.8,18a1.51,1.51,0,0,0-1.48-1.71c-.91,0-1.47.51-1.82,1.53-1.61,4.55-3.3,8.68-5.27,13.23H7.71c1.6,0,2.25-.33,2.8-1.56,1.36-3.22,2.78-6.89,3.91-10A6.14,6.14,0,0,0,14.8,18Z" transform="translate(-0.77 -2.6)" style="fill:#b50029"/><path d="M61.54,11.27H56.76L53,31H56.8A3.17,3.17,0,0,0,60,28.41c.71-3.68,1.5-8.86,1.5-8.86s1.59,4.32,3.46,9.37a3.45,3.45,0,0,0,6.49,0c1.86-5,3.42-9.35,3.42-9.35s.84,5.2,1.5,8.86A3.13,3.13,0,0,0,79.5,31h3.85L79.52,11.28H74.77a3.62,3.62,0,0,0-3.43,2.39c-1.38,3.84-3.19,9.12-3.19,9.12s-1.8-5.31-3.19-9.14A3.72,3.72,0,0,0,61.54,11.27Z" transform="translate(-0.77 -2.6)" style="fill:#967d64"/><path d="M94.52,10.92c5.65,0,10.64,3.06,10.64,10.26s-5,10.29-10.64,10.29S83.88,28.41,83.88,21.17,88.88,10.92,94.52,10.92ZM89.89,21.17c0,4.66,1.89,6.21,4.63,6.21s4.63-1.53,4.63-6.21S97.28,15,94.52,15,89.89,16.51,89.89,21.17Z" transform="translate(-0.77 -2.6)" style="fill:#967d64"/><path d="M107.56,11.28h12a4.51,4.51,0,0,1,4.82,4.33A6.48,6.48,0,0,1,121,21L126.58,31h-5.31a2.16,2.16,0,0,1-2.37-1.33c-1.68-3.39-4.49-9.22-4.49-9.22,2.42-.27,4.16-1.4,4.16-3.15a2,2,0,0,0-2.24-2h-2.93V31h-5.83Z" transform="translate(-0.77 -2.6)" style="fill:#967d64"/><rect x="126.54" y="8.68" width="5.83" height="19.76" style="fill:#967d64"/><path d="M136.33,31V11.28h4.84a5,5,0,0,1,4.42,3.17l3.71,8.74V11.28h5.46V31h-4.59a5,5,0,0,1-4.63-3.42L141.8,18.8V31Z" transform="translate(-0.77 -2.6)" style="fill:#967d64"/><path d="M171.81,31l-1.14-3.55h-7.36l-1,3.55H156l5.47-16.8a4.51,4.51,0,0,1,4.22-3h5.87L178.27,31Zm-2.33-7.35-2.74-8.5-2.4,8.5Z" transform="translate(-0.77 -2.6)" style="fill:#967d64"/><path d="M189.89,20.55v6a6.27,6.27,0,0,1-1.73.29c-2.7,0-4-1.34-4-5.56,0-3.4,1-6.57,6.17-6.57a8.41,8.41,0,0,1,4.32,1V11.28a18,18,0,0,0-5.12-.7c-8.43,0-11.41,5.61-11.41,10.83,0,7.38,3.94,10.08,10.09,10.08,4.48,0,5.18-.72,7.49-.72V20.55h-5.83" transform="translate(-0.77 -2.6)" style="fill:#967d64"/><path d="M212.54,31l-1.13-3.55H204L203,31h-6.28l5.47-16.8a4.52,4.52,0,0,1,4.22-3h5.88L219,31Zm-2.33-7.35-2.74-8.5-2.41,8.5Z" transform="translate(-0.77 -2.6)" style="fill:#967d64"/></svg>